<mxfile host="app.diagrams.net" agent="Mozilla/5.0 (Windows NT 10.0; Win64; x64) AppleWebKit/537.36 (KHTML, like Gecko) Chrome/133.0.0.0 Safari/537.36 Edg/133.0.0.0" version="26.0.5">
  <diagram name="Page-1" id="2NxlmUsGEe-_iy3BjCIp">
    <mxGraphModel dx="2078" dy="1387" grid="0" gridSize="10" guides="1" tooltips="1" connect="1" arrows="1" fold="1" page="0" pageScale="1" pageWidth="827" pageHeight="1169" math="0" shadow="0">
      <root>
        <mxCell id="0" />
        <mxCell id="1" parent="0" />
        <mxCell id="uWX_HI5VLHcMN5w47ds0-1" value="Page de Login" style="whiteSpace=wrap;html=1;aspect=fixed;" vertex="1" parent="1">
          <mxGeometry x="-225" y="264" width="80" height="80" as="geometry" />
        </mxCell>
        <mxCell id="uWX_HI5VLHcMN5w47ds0-3" value="Page de Register" style="whiteSpace=wrap;html=1;aspect=fixed;" vertex="1" parent="1">
          <mxGeometry x="-223" y="383" width="80" height="80" as="geometry" />
        </mxCell>
        <mxCell id="uWX_HI5VLHcMN5w47ds0-4" value="DB" style="shape=cylinder3;whiteSpace=wrap;html=1;boundedLbl=1;backgroundOutline=1;size=15;" vertex="1" parent="1">
          <mxGeometry x="470" y="107" width="60" height="80" as="geometry" />
        </mxCell>
        <mxCell id="uWX_HI5VLHcMN5w47ds0-5" value="Page de profil" style="whiteSpace=wrap;html=1;aspect=fixed;" vertex="1" parent="1">
          <mxGeometry x="-223" y="-96" width="80" height="80" as="geometry" />
        </mxCell>
        <mxCell id="uWX_HI5VLHcMN5w47ds0-6" value="Middleware d&#39;authenfication" style="shape=process;whiteSpace=wrap;html=1;backgroundOutline=1;" vertex="1" parent="1">
          <mxGeometry x="13" y="-159" width="120" height="415" as="geometry" />
        </mxCell>
        <mxCell id="uWX_HI5VLHcMN5w47ds0-7" value="Contrôleur User" style="shape=process;whiteSpace=wrap;html=1;backgroundOutline=1;" vertex="1" parent="1">
          <mxGeometry x="236" y="-86" width="120" height="60" as="geometry" />
        </mxCell>
        <mxCell id="uWX_HI5VLHcMN5w47ds0-8" value="Contrôleur Authentification" style="shape=process;whiteSpace=wrap;html=1;backgroundOutline=1;" vertex="1" parent="1">
          <mxGeometry x="215" y="334" width="120" height="60" as="geometry" />
        </mxCell>
        <mxCell id="uWX_HI5VLHcMN5w47ds0-9" value="" style="endArrow=classic;html=1;rounded=0;fontSize=12;startSize=8;endSize=8;curved=1;exitX=1;exitY=0.5;exitDx=0;exitDy=0;entryX=0;entryY=0.75;entryDx=0;entryDy=0;" edge="1" parent="1" source="uWX_HI5VLHcMN5w47ds0-3" target="uWX_HI5VLHcMN5w47ds0-8">
          <mxGeometry width="50" height="50" relative="1" as="geometry">
            <mxPoint x="175" y="225" as="sourcePoint" />
            <mxPoint x="225" y="175" as="targetPoint" />
          </mxGeometry>
        </mxCell>
        <mxCell id="uWX_HI5VLHcMN5w47ds0-10" value="" style="endArrow=classic;html=1;rounded=0;fontSize=12;startSize=8;endSize=8;curved=1;exitX=1;exitY=0.5;exitDx=0;exitDy=0;entryX=0;entryY=0.25;entryDx=0;entryDy=0;" edge="1" parent="1" source="uWX_HI5VLHcMN5w47ds0-1" target="uWX_HI5VLHcMN5w47ds0-8">
          <mxGeometry width="50" height="50" relative="1" as="geometry">
            <mxPoint x="175" y="225" as="sourcePoint" />
            <mxPoint x="225" y="175" as="targetPoint" />
          </mxGeometry>
        </mxCell>
        <mxCell id="uWX_HI5VLHcMN5w47ds0-11" value="" style="endArrow=classic;html=1;rounded=0;fontSize=12;startSize=8;endSize=8;curved=1;exitX=1;exitY=0.5;exitDx=0;exitDy=0;entryX=0;entryY=0.25;entryDx=0;entryDy=0;" edge="1" parent="1" source="uWX_HI5VLHcMN5w47ds0-5" target="uWX_HI5VLHcMN5w47ds0-6">
          <mxGeometry width="50" height="50" relative="1" as="geometry">
            <mxPoint x="175" y="225" as="sourcePoint" />
            <mxPoint x="-45" y="-33" as="targetPoint" />
          </mxGeometry>
        </mxCell>
        <mxCell id="uWX_HI5VLHcMN5w47ds0-12" value="" style="endArrow=classic;html=1;rounded=0;fontSize=12;startSize=8;endSize=8;curved=1;entryX=0;entryY=0.5;entryDx=0;entryDy=0;exitX=1;exitY=0.25;exitDx=0;exitDy=0;" edge="1" parent="1" source="uWX_HI5VLHcMN5w47ds0-6" target="uWX_HI5VLHcMN5w47ds0-7">
          <mxGeometry width="50" height="50" relative="1" as="geometry">
            <mxPoint x="175" y="225" as="sourcePoint" />
            <mxPoint x="225" y="175" as="targetPoint" />
          </mxGeometry>
        </mxCell>
        <mxCell id="uWX_HI5VLHcMN5w47ds0-13" value="" style="endArrow=classic;html=1;rounded=0;fontSize=12;startSize=8;endSize=8;curved=1;entryX=0;entryY=0.5;entryDx=0;entryDy=0;entryPerimeter=0;exitX=1;exitY=0.5;exitDx=0;exitDy=0;" edge="1" parent="1" source="uWX_HI5VLHcMN5w47ds0-7" target="uWX_HI5VLHcMN5w47ds0-4">
          <mxGeometry width="50" height="50" relative="1" as="geometry">
            <mxPoint x="175" y="225" as="sourcePoint" />
            <mxPoint x="225" y="175" as="targetPoint" />
          </mxGeometry>
        </mxCell>
        <mxCell id="uWX_HI5VLHcMN5w47ds0-14" value="" style="endArrow=classic;html=1;rounded=0;fontSize=12;startSize=8;endSize=8;curved=1;entryX=0;entryY=0;entryDx=0;entryDy=52.5;entryPerimeter=0;exitX=1;exitY=0.5;exitDx=0;exitDy=0;" edge="1" parent="1" source="uWX_HI5VLHcMN5w47ds0-8" target="uWX_HI5VLHcMN5w47ds0-4">
          <mxGeometry width="50" height="50" relative="1" as="geometry">
            <mxPoint x="175" y="225" as="sourcePoint" />
            <mxPoint x="225" y="175" as="targetPoint" />
          </mxGeometry>
        </mxCell>
        <mxCell id="uWX_HI5VLHcMN5w47ds0-15" value="Contrôleur Admin" style="shape=process;whiteSpace=wrap;html=1;backgroundOutline=1;" vertex="1" parent="1">
          <mxGeometry x="220" y="120" width="120" height="60" as="geometry" />
        </mxCell>
        <mxCell id="uWX_HI5VLHcMN5w47ds0-16" value="Page d&#39;administration" style="whiteSpace=wrap;html=1;aspect=fixed;" vertex="1" parent="1">
          <mxGeometry x="-223" y="110" width="80" height="80" as="geometry" />
        </mxCell>
        <mxCell id="uWX_HI5VLHcMN5w47ds0-18" value="" style="endArrow=classic;html=1;rounded=0;fontSize=12;startSize=8;endSize=8;curved=1;exitX=1;exitY=0.5;exitDx=0;exitDy=0;entryX=0;entryY=0.75;entryDx=0;entryDy=0;" edge="1" parent="1" source="uWX_HI5VLHcMN5w47ds0-16" target="uWX_HI5VLHcMN5w47ds0-6">
          <mxGeometry width="50" height="50" relative="1" as="geometry">
            <mxPoint x="175" y="225" as="sourcePoint" />
            <mxPoint x="225" y="175" as="targetPoint" />
          </mxGeometry>
        </mxCell>
        <mxCell id="uWX_HI5VLHcMN5w47ds0-19" value="" style="endArrow=classic;html=1;rounded=0;fontSize=12;startSize=8;endSize=8;curved=1;exitX=1;exitY=0.75;exitDx=0;exitDy=0;entryX=0;entryY=0.5;entryDx=0;entryDy=0;" edge="1" parent="1" source="uWX_HI5VLHcMN5w47ds0-6" target="uWX_HI5VLHcMN5w47ds0-15">
          <mxGeometry width="50" height="50" relative="1" as="geometry">
            <mxPoint x="175" y="225" as="sourcePoint" />
            <mxPoint x="225" y="175" as="targetPoint" />
          </mxGeometry>
        </mxCell>
        <mxCell id="uWX_HI5VLHcMN5w47ds0-20" value="" style="endArrow=classic;html=1;rounded=0;fontSize=12;startSize=8;endSize=8;curved=1;exitX=1;exitY=0.5;exitDx=0;exitDy=0;entryX=0.003;entryY=0.581;entryDx=0;entryDy=0;entryPerimeter=0;" edge="1" parent="1" source="uWX_HI5VLHcMN5w47ds0-15" target="uWX_HI5VLHcMN5w47ds0-4">
          <mxGeometry width="50" height="50" relative="1" as="geometry">
            <mxPoint x="175" y="225" as="sourcePoint" />
            <mxPoint x="458" y="154" as="targetPoint" />
          </mxGeometry>
        </mxCell>
      </root>
    </mxGraphModel>
  </diagram>
</mxfile>
